<svg xmlns="http://www.w3.org/2000/svg" xmlns:xlink="http://www.w3.org/1999/xlink" width="168" zoomAndPan="magnify" viewBox="0 0 126 66.75" height="89" preserveAspectRatio="xMidYMid meet" version="1.0"><defs><clipPath id="7935238a53"><path d="M 16 50 L 35 50 L 35 66.292969 L 16 66.292969 Z M 16 50 " clip-rule="nonzero"/></clipPath><clipPath id="11bf55efc7"><path d="M 35 51 L 46 51 L 46 66.292969 L 35 66.292969 Z M 35 51 " clip-rule="nonzero"/></clipPath><clipPath id="9ae9c74862"><path d="M 45 54 L 63 54 L 63 66.292969 L 45 66.292969 Z M 45 54 " clip-rule="nonzero"/></clipPath><clipPath id="1a52d3c7f0"><path d="M 62 50 L 81 50 L 81 66.292969 L 62 66.292969 Z M 62 50 " clip-rule="nonzero"/></clipPath><clipPath id="3f3573a600"><path d="M 80 50 L 88 50 L 88 66.292969 L 80 66.292969 Z M 80 50 " clip-rule="nonzero"/></clipPath><clipPath id="60b9744cbb"><path d="M 87 54 L 105 54 L 105 66.292969 L 87 66.292969 Z M 87 54 " clip-rule="nonzero"/></clipPath><clipPath id="9e6c25cf8c"><path d="M 104 54 L 122 54 L 122 66.292969 L 104 66.292969 Z M 104 54 " clip-rule="nonzero"/></clipPath><clipPath id="f5f7edcef1"><path d="M 1 0.539062 L 97 0.539062 L 97 25 L 1 25 Z M 1 0.539062 " clip-rule="nonzero"/></clipPath></defs><g clip-path="url(#7935238a53)"><path fill="#ffffff" d="M 21.390625 60.992188 L 17.347656 61.195312 C 17.152344 61.207031 16.984375 61.28125 16.84375 61.417969 C 16.710938 61.550781 16.644531 61.710938 16.648438 61.898438 C 16.667969 62.472656 16.789062 63.023438 17.015625 63.546875 C 17.246094 64.070312 17.566406 64.527344 17.976562 64.921875 C 18.660156 65.511719 19.445312 65.886719 20.332031 66.046875 C 21.683594 66.332031 23.046875 66.460938 24.425781 66.433594 C 25.296875 66.4375 26.164062 66.382812 27.027344 66.269531 C 27.769531 66.171875 28.5 66.007812 29.210938 65.777344 C 29.839844 65.570312 30.4375 65.300781 31.007812 64.964844 C 31.535156 64.65625 32.015625 64.285156 32.453125 63.855469 C 32.851562 63.464844 33.195312 63.027344 33.480469 62.542969 C 33.738281 62.097656 33.921875 61.621094 34.027344 61.117188 C 34.113281 60.726562 34.132812 60.328125 34.085938 59.929688 C 34.042969 59.554688 33.929688 59.199219 33.753906 58.867188 C 33.554688 58.511719 33.296875 58.207031 32.980469 57.949219 C 32.589844 57.636719 32.167969 57.382812 31.710938 57.183594 C 31.03125 56.890625 30.332031 56.660156 29.613281 56.484375 C 28.726562 56.253906 27.644531 56.023438 26.371094 55.789062 C 25.945312 55.71875 25.523438 55.625 25.105469 55.503906 C 24.839844 55.4375 24.597656 55.320312 24.378906 55.160156 C 24.242188 55.054688 24.140625 54.929688 24.066406 54.773438 C 24.003906 54.625 23.988281 54.472656 24.023438 54.316406 C 24.066406 54.109375 24.15625 53.925781 24.289062 53.761719 C 24.441406 53.582031 24.617188 53.433594 24.820312 53.316406 C 25.066406 53.175781 25.324219 53.078125 25.601562 53.019531 C 25.925781 52.953125 26.253906 52.921875 26.582031 52.925781 C 26.976562 52.917969 27.363281 52.960938 27.746094 53.054688 C 28.0625 53.128906 28.347656 53.261719 28.609375 53.457031 C 28.765625 53.578125 28.894531 53.722656 28.996094 53.894531 C 29.101562 54.070312 29.179688 54.257812 29.226562 54.460938 C 29.265625 54.609375 29.351562 54.726562 29.480469 54.808594 C 29.628906 54.90625 29.789062 54.949219 29.960938 54.9375 L 34 54.75 C 34.191406 54.734375 34.355469 54.660156 34.492188 54.519531 C 34.621094 54.390625 34.679688 54.234375 34.671875 54.050781 L 34.671875 54.027344 C 34.632812 53.484375 34.480469 52.976562 34.21875 52.5 C 33.957031 52.050781 33.609375 51.691406 33.171875 51.414062 C 32.050781 50.675781 30.257812 50.308594 27.800781 50.308594 C 26.882812 50.300781 25.972656 50.355469 25.0625 50.464844 C 24.332031 50.546875 23.621094 50.703125 22.921875 50.925781 C 22.347656 51.113281 21.796875 51.355469 21.273438 51.652344 C 20.8125 51.910156 20.390625 52.226562 20.011719 52.59375 C 19.679688 52.921875 19.390625 53.285156 19.152344 53.683594 C 18.941406 54.042969 18.792969 54.425781 18.707031 54.828125 C 18.582031 55.375 18.605469 55.914062 18.78125 56.445312 C 18.972656 56.96875 19.285156 57.402344 19.71875 57.746094 C 20.320312 58.210938 20.980469 58.5625 21.703125 58.796875 C 22.746094 59.164062 23.8125 59.441406 24.898438 59.636719 C 25.546875 59.75 26.1875 59.902344 26.816406 60.089844 C 27.207031 60.195312 27.5625 60.363281 27.890625 60.601562 C 28.085938 60.761719 28.230469 60.960938 28.328125 61.191406 C 28.417969 61.414062 28.4375 61.640625 28.382812 61.871094 C 28.328125 62.125 28.214844 62.355469 28.050781 62.554688 C 27.851562 62.785156 27.625 62.976562 27.363281 63.128906 C 27.058594 63.316406 26.734375 63.445312 26.382812 63.523438 C 25.984375 63.613281 25.578125 63.65625 25.167969 63.652344 C 24.636719 63.667969 24.117188 63.582031 23.617188 63.398438 C 23.1875 63.238281 22.835938 62.976562 22.554688 62.613281 C 22.445312 62.46875 22.359375 62.3125 22.296875 62.140625 C 22.226562 61.957031 22.179688 61.765625 22.15625 61.570312 C 22.128906 61.394531 22.042969 61.253906 21.902344 61.148438 C 21.75 61.035156 21.582031 60.984375 21.394531 60.996094 " fill-opacity="1" fill-rule="nonzero"/></g><g clip-path="url(#11bf55efc7)"><path fill="#ffffff" d="M 36.394531 57.847656 C 36.453125 57.859375 36.511719 57.863281 36.570312 57.863281 L 37.472656 57.847656 C 37.160156 59.273438 36.875 60.703125 36.582031 62.128906 C 36.460938 62.667969 36.386719 63.214844 36.351562 63.769531 C 36.324219 64.132812 36.359375 64.488281 36.457031 64.839844 C 36.539062 65.097656 36.671875 65.332031 36.851562 65.535156 C 37.039062 65.742188 37.261719 65.90625 37.515625 66.023438 C 37.871094 66.179688 38.242188 66.28125 38.628906 66.324219 C 39.195312 66.398438 39.765625 66.433594 40.335938 66.429688 C 40.765625 66.429688 41.210938 66.410156 41.671875 66.378906 C 42.132812 66.347656 42.613281 66.296875 43.105469 66.230469 C 43.363281 66.199219 43.582031 66.09375 43.765625 65.914062 C 43.941406 65.738281 44.039062 65.527344 44.0625 65.28125 L 44.125 64.417969 C 44.144531 64.171875 44.058594 63.96875 43.871094 63.804688 C 43.730469 63.679688 43.566406 63.613281 43.378906 63.601562 C 43.324219 63.597656 43.269531 63.597656 43.214844 63.605469 L 42.925781 63.640625 L 42.667969 63.648438 C 42.449219 63.65625 42.242188 63.617188 42.039062 63.539062 C 41.863281 63.46875 41.730469 63.347656 41.640625 63.179688 C 41.582031 63.039062 41.558594 62.890625 41.566406 62.738281 C 41.578125 62.519531 41.605469 62.308594 41.652344 62.097656 L 42.53125 57.867188 L 44.765625 57.867188 C 44.980469 57.867188 45.171875 57.800781 45.34375 57.671875 C 45.511719 57.546875 45.617188 57.378906 45.660156 57.175781 L 45.90625 55.992188 C 45.917969 55.9375 45.921875 55.882812 45.921875 55.828125 C 45.921875 55.621094 45.851562 55.441406 45.714844 55.285156 C 45.574219 55.125 45.398438 55.027344 45.1875 54.988281 C 45.128906 54.980469 45.070312 54.976562 45.011719 54.976562 L 43.121094 54.976562 L 43.738281 52.003906 C 43.769531 51.863281 43.753906 51.726562 43.699219 51.597656 C 43.648438 51.480469 43.570312 51.386719 43.472656 51.308594 C 43.371094 51.230469 43.253906 51.179688 43.128906 51.15625 C 42.980469 51.132812 42.832031 51.144531 42.691406 51.195312 L 39.515625 52.417969 C 39.207031 52.539062 38.941406 52.71875 38.722656 52.96875 C 38.511719 53.210938 38.371094 53.488281 38.300781 53.804688 L 38.066406 54.972656 L 36.8125 54.972656 C 36.597656 54.972656 36.40625 55.039062 36.230469 55.167969 C 36.066406 55.292969 35.960938 55.457031 35.917969 55.664062 L 35.675781 56.84375 C 35.660156 56.898438 35.65625 56.953125 35.65625 57.007812 C 35.65625 57.214844 35.726562 57.394531 35.867188 57.550781 C 36.007812 57.710938 36.183594 57.808594 36.394531 57.847656 " fill-opacity="1" fill-rule="nonzero"/></g><g clip-path="url(#9ae9c74862)"><path fill="#ffffff" d="M 56.203125 62.035156 C 55.976562 63.207031 54.464844 64.1875 52.628906 64.1875 C 51.394531 64.1875 50.714844 63.636719 50.863281 62.855469 C 51 62.191406 51.652344 61.859375 52.921875 61.621094 C 54.167969 61.390625 55.363281 61.546875 56.375 61.160156 Z M 61.167969 65.4375 C 61.328125 66.015625 60.859375 66.34375 60.253906 66.34375 L 56.925781 66.34375 C 55.738281 66.34375 55.765625 64.910156 55.761719 64.886719 C 54.0625 65.960938 52.210938 66.519531 50.203125 66.558594 C 46.929688 66.558594 45.222656 65.265625 45.609375 63.289062 C 45.980469 61.410156 47.683594 60.292969 50.730469 59.828125 C 54.707031 59.21875 56.761719 59.175781 56.929688 58.320312 L 56.980469 58.042969 C 57.113281 57.402344 56.449219 57.066406 55.011719 57.066406 C 52.632812 57.066406 52.746094 58.320312 51.203125 58.320312 L 48.230469 58.320312 C 47.695312 58.320312 47.34375 57.898438 47.660156 57.40625 C 49.347656 54.816406 53.011719 54.578125 55.644531 54.578125 C 58.5625 54.578125 60.523438 55.050781 61.472656 56.03125 C 62.355469 56.929688 62.1875 58.0625 61.882812 59.609375 L 61.058594 63.816406 C 60.9375 64.371094 60.976562 64.910156 61.167969 65.441406 " fill-opacity="1" fill-rule="evenodd"/></g><g clip-path="url(#1a52d3c7f0)"><path fill="#ffffff" d="M 77.320312 65.332031 L 80.207031 51.398438 L 80.222656 51.265625 C 80.21875 51.097656 80.164062 50.953125 80.054688 50.828125 C 79.9375 50.703125 79.796875 50.625 79.628906 50.59375 L 79.492188 50.582031 L 76.179688 50.582031 C 75.917969 50.582031 75.6875 50.660156 75.480469 50.816406 C 75.28125 50.96875 75.152344 51.167969 75.101562 51.414062 L 74.085938 56.304688 L 73.839844 56.042969 C 73.628906 55.820312 73.394531 55.628906 73.140625 55.460938 C 72.871094 55.289062 72.589844 55.152344 72.292969 55.046875 C 71.964844 54.929688 71.632812 54.84375 71.289062 54.792969 C 70.082031 54.617188 68.898438 54.710938 67.738281 55.082031 C 66.976562 55.335938 66.277344 55.707031 65.640625 56.191406 C 64.988281 56.691406 64.453125 57.292969 64.035156 58 C 63.589844 58.777344 63.28125 59.601562 63.113281 60.480469 C 62.9375 61.246094 62.902344 62.015625 63.003906 62.792969 C 63.097656 63.488281 63.332031 64.128906 63.710938 64.71875 C 64.085938 65.296875 64.589844 65.722656 65.222656 65.996094 C 65.984375 66.304688 66.777344 66.449219 67.601562 66.425781 C 68.058594 66.425781 68.515625 66.386719 68.964844 66.304688 C 69.402344 66.226562 69.828125 66.105469 70.246094 65.9375 C 70.597656 65.792969 70.9375 65.613281 71.253906 65.398438 C 71.667969 65.125 72.066406 64.824219 72.445312 64.503906 L 72.859375 64.160156 L 72.613281 65.347656 L 72.597656 65.480469 C 72.597656 65.648438 72.652344 65.792969 72.765625 65.914062 C 72.878906 66.042969 73.019531 66.121094 73.1875 66.148438 L 73.328125 66.164062 L 76.238281 66.164062 C 76.496094 66.164062 76.730469 66.085938 76.9375 65.929688 C 77.136719 65.777344 77.261719 65.578125 77.316406 65.332031 M 73.3125 59.328125 C 73.359375 59.746094 73.335938 60.160156 73.238281 60.570312 C 73.148438 61.035156 72.996094 61.480469 72.78125 61.902344 C 72.597656 62.261719 72.351562 62.570312 72.035156 62.828125 C 71.753906 63.054688 71.441406 63.230469 71.097656 63.355469 C 70.753906 63.472656 70.402344 63.53125 70.042969 63.53125 C 69.71875 63.535156 69.402344 63.476562 69.101562 63.351562 C 68.824219 63.226562 68.589844 63.046875 68.398438 62.804688 C 68.1875 62.527344 68.070312 62.21875 68.042969 61.871094 C 68.007812 61.441406 68.039062 61.019531 68.132812 60.597656 C 68.226562 60.132812 68.375 59.691406 68.578125 59.265625 C 68.75 58.914062 68.984375 58.609375 69.28125 58.351562 C 69.808594 57.894531 70.425781 57.667969 71.121094 57.667969 C 71.476562 57.664062 71.820312 57.722656 72.152344 57.847656 C 72.453125 57.96875 72.707031 58.152344 72.914062 58.398438 C 73.136719 58.671875 73.269531 58.980469 73.3125 59.328125 " fill-opacity="1" fill-rule="nonzero"/></g><g clip-path="url(#3f3573a600)"><path fill="#ffffff" d="M 87.238281 50.582031 L 83.984375 50.582031 C 83.722656 50.582031 83.488281 50.65625 83.28125 50.8125 C 83.082031 50.96875 82.957031 51.167969 82.902344 51.414062 L 82.691406 52.425781 L 82.679688 52.558594 C 82.679688 52.726562 82.738281 52.871094 82.847656 52.996094 C 82.960938 53.121094 83.101562 53.199219 83.269531 53.230469 L 83.410156 53.242188 L 86.664062 53.242188 C 86.925781 53.246094 87.160156 53.167969 87.367188 53.007812 C 87.566406 52.855469 87.695312 52.65625 87.746094 52.40625 L 87.957031 51.398438 L 87.96875 51.261719 C 87.96875 51.097656 87.914062 50.953125 87.800781 50.828125 C 87.6875 50.703125 87.546875 50.625 87.378906 50.59375 Z M 86.332031 54.972656 L 83.074219 54.972656 C 82.816406 54.96875 82.582031 55.046875 82.375 55.207031 C 82.175781 55.359375 82.050781 55.558594 81.996094 55.804688 L 80.019531 65.347656 L 80.007812 65.484375 C 80.007812 65.648438 80.0625 65.792969 80.171875 65.914062 C 80.285156 66.042969 80.425781 66.121094 80.597656 66.152344 L 80.738281 66.167969 L 83.992188 66.167969 C 84.253906 66.167969 84.488281 66.089844 84.695312 65.933594 C 84.894531 65.777344 85.019531 65.578125 85.074219 65.332031 L 87.050781 55.789062 L 87.0625 55.65625 C 87.0625 55.488281 87.007812 55.34375 86.898438 55.222656 C 86.785156 55.09375 86.644531 55.015625 86.480469 54.988281 Z M 86.332031 54.972656 " fill-opacity="1" fill-rule="nonzero"/></g><g clip-path="url(#60b9744cbb)"><path fill="#ffffff" d="M 89.015625 58.289062 C 88.511719 59 88.171875 59.78125 87.996094 60.632812 C 87.796875 61.46875 87.835938 62.292969 88.105469 63.109375 C 88.402344 63.898438 88.894531 64.546875 89.570312 65.050781 C 90.214844 65.539062 90.933594 65.882812 91.71875 66.078125 C 92.6875 66.324219 93.675781 66.4375 94.675781 66.421875 C 95.84375 66.433594 96.996094 66.296875 98.125 66.007812 C 99.125 65.746094 100.054688 65.332031 100.914062 64.757812 C 101.691406 64.25 102.351562 63.617188 102.894531 62.863281 C 103.398438 62.148438 103.738281 61.359375 103.914062 60.5 C 104.074219 59.800781 104.078125 59.09375 103.929688 58.390625 C 103.777344 57.738281 103.476562 57.160156 103.03125 56.65625 C 102.394531 55.960938 101.628906 55.476562 100.726562 55.203125 C 99.566406 54.847656 98.378906 54.683594 97.164062 54.710938 C 96.019531 54.703125 94.894531 54.839844 93.789062 55.128906 C 92.792969 55.398438 91.867188 55.816406 91.011719 56.386719 C 90.230469 56.898438 89.5625 57.53125 89.011719 58.285156 M 92.984375 61.949219 C 92.9375 61.480469 92.96875 61.015625 93.074219 60.554688 C 93.167969 60.074219 93.328125 59.617188 93.5625 59.183594 C 93.765625 58.796875 94.039062 58.46875 94.378906 58.191406 C 95.03125 57.660156 95.773438 57.398438 96.613281 57.40625 C 96.984375 57.398438 97.339844 57.464844 97.683594 57.605469 C 98 57.738281 98.269531 57.941406 98.488281 58.210938 C 98.726562 58.503906 98.863281 58.839844 98.902344 59.21875 C 98.953125 59.675781 98.925781 60.128906 98.820312 60.578125 C 98.726562 61.078125 98.5625 61.558594 98.328125 62.011719 C 98.128906 62.402344 97.859375 62.734375 97.523438 63.011719 C 97.214844 63.265625 96.871094 63.457031 96.496094 63.589844 C 96.117188 63.722656 95.726562 63.785156 95.324219 63.785156 C 94.945312 63.789062 94.578125 63.722656 94.226562 63.585938 C 93.902344 63.449219 93.628906 63.25 93.40625 62.976562 C 93.164062 62.675781 93.023438 62.335938 92.988281 61.953125 " fill-opacity="1" fill-rule="nonzero"/></g><g clip-path="url(#9e6c25cf8c)"><path fill="#ffffff" d="M 110.203125 54.859375 C 110.320312 54.851562 110.433594 54.867188 110.539062 54.910156 C 110.648438 54.953125 110.742188 55.019531 110.816406 55.105469 C 110.894531 55.195312 110.945312 55.292969 110.976562 55.40625 C 111.003906 55.519531 111.007812 55.632812 110.984375 55.746094 L 110.761719 56.910156 C 116.53125 52.507812 122.921875 54.429688 121.753906 60.375 L 120.761719 65.515625 C 120.695312 65.777344 120.558594 65.992188 120.34375 66.160156 C 120.132812 66.324219 119.894531 66.410156 119.625 66.414062 L 116.722656 66.414062 C 116.605469 66.421875 116.496094 66.40625 116.386719 66.359375 C 116.277344 66.316406 116.1875 66.25 116.109375 66.160156 C 116.035156 66.074219 115.980469 65.972656 115.953125 65.859375 C 115.921875 65.746094 115.921875 65.632812 115.945312 65.519531 L 116.839844 60.957031 C 117.835938 55.832031 110.839844 56.53125 109.957031 61.03125 C 109.527344 63.214844 109.074219 65.523438 109.074219 65.523438 C 109.011719 65.785156 108.875 66 108.664062 66.164062 C 108.457031 66.332031 108.21875 66.414062 107.949219 66.417969 L 105.0625 66.417969 C 104.949219 66.425781 104.835938 66.410156 104.726562 66.363281 C 104.621094 66.320312 104.527344 66.253906 104.449219 66.167969 C 104.375 66.078125 104.320312 65.980469 104.292969 65.867188 C 104.261719 65.753906 104.257812 65.640625 104.285156 65.523438 L 106.199219 55.75 C 106.265625 55.492188 106.402344 55.277344 106.613281 55.113281 C 106.820312 54.949219 107.0625 54.863281 107.328125 54.863281 Z M 110.203125 54.859375 " fill-opacity="1" fill-rule="evenodd"/></g><g clip-path="url(#f5f7edcef1)"><path fill="#ffffff" d="M 94.546875 17.898438 C 95.980469 18.289062 96.425781 17.140625 95.652344 16.519531 C 69.105469 -3.851562 22.28125 -7.890625 1.6875 23.332031 C 1.167969 24.121094 2.09375 24.488281 2.609375 23.933594 C 35.730469 -11.496094 86.484375 13.742188 87.496094 14.269531 C 87.597656 14.308594 87.554688 14.410156 87.472656 14.382812 C 76.300781 11.035156 61.527344 14.988281 55.230469 21.414062 C 55.035156 21.613281 55.25 21.863281 55.5 21.671875 C 63.34375 16.191406 79.25 14.464844 94.546875 17.894531 " fill-opacity="1" fill-rule="evenodd"/></g><path fill="#ffffff" d="M 49.539062 18.390625 C 49.714844 18.378906 49.886719 18.40625 50.050781 18.476562 C 50.214844 18.542969 50.355469 18.644531 50.472656 18.777344 C 50.585938 18.914062 50.667969 19.066406 50.710938 19.238281 C 50.757812 19.410156 50.761719 19.582031 50.722656 19.753906 L 50.234375 22.222656 C 50.136719 22.613281 49.929688 22.9375 49.613281 23.191406 C 49.296875 23.445312 48.9375 23.578125 48.53125 23.585938 L 29.320312 23.585938 L 28.515625 27.707031 L 38.488281 27.707031 C 38.667969 27.691406 38.835938 27.71875 39 27.785156 C 39.164062 27.851562 39.304688 27.953125 39.421875 28.085938 C 39.539062 28.21875 39.621094 28.371094 39.664062 28.542969 C 39.710938 28.714844 39.714844 28.890625 39.679688 29.0625 L 39.230469 31.363281 C 39.128906 31.753906 38.921875 32.078125 38.605469 32.328125 C 38.285156 32.582031 37.925781 32.710938 37.519531 32.71875 L 27.539062 32.71875 L 26.730469 36.832031 L 45.933594 36.84375 C 46.109375 36.828125 46.277344 36.855469 46.441406 36.921875 C 46.605469 36.988281 46.746094 37.089844 46.863281 37.222656 C 46.980469 37.355469 47.0625 37.507812 47.105469 37.679688 C 47.148438 37.847656 47.152344 38.023438 47.117188 38.195312 L 46.628906 40.667969 C 46.53125 41.0625 46.324219 41.386719 46.003906 41.640625 C 45.683594 41.894531 45.320312 42.027344 44.914062 42.035156 L 20.117188 42.035156 C 19.941406 42.046875 19.769531 42.019531 19.605469 41.953125 C 19.441406 41.882812 19.300781 41.78125 19.183594 41.648438 C 19.066406 41.515625 18.988281 41.359375 18.941406 41.1875 C 18.898438 41.015625 18.898438 40.84375 18.933594 40.667969 L 23.027344 19.75 C 23.125 19.355469 23.332031 19.03125 23.652344 18.777344 C 23.972656 18.527344 24.332031 18.398438 24.738281 18.390625 Z M 49.539062 18.390625 " fill-opacity="1" fill-rule="evenodd"/><path fill="#ffffff" d="M 57.171875 25.183594 C 57.339844 25.167969 57.503906 25.195312 57.660156 25.257812 C 57.816406 25.320312 57.953125 25.417969 58.066406 25.542969 C 58.175781 25.671875 58.253906 25.816406 58.296875 25.980469 C 58.339844 26.148438 58.34375 26.3125 58.308594 26.476562 L 57.984375 28.175781 C 66.398438 21.753906 75.707031 24.558594 74.011719 33.226562 L 72.558594 40.722656 C 72.460938 41.101562 72.257812 41.414062 71.949219 41.65625 C 71.640625 41.898438 71.292969 42.023438 70.898438 42.03125 L 66.671875 42.03125 C 66.503906 42.042969 66.339844 42.015625 66.179688 41.953125 C 66.023438 41.886719 65.890625 41.789062 65.777344 41.660156 C 65.667969 41.53125 65.589844 41.382812 65.546875 41.21875 C 65.507812 41.054688 65.503906 40.886719 65.539062 40.722656 L 66.84375 34.074219 C 68.300781 26.601562 58.09375 27.625 56.804688 34.179688 C 56.179688 37.359375 55.519531 40.730469 55.519531 40.730469 C 55.425781 41.109375 55.226562 41.417969 54.921875 41.660156 C 54.617188 41.902344 54.269531 42.027344 53.878906 42.03125 L 49.683594 42.03125 C 49.511719 42.042969 49.347656 42.015625 49.191406 41.953125 C 49.035156 41.886719 48.902344 41.792969 48.789062 41.664062 C 48.675781 41.535156 48.597656 41.390625 48.554688 41.226562 C 48.511719 41.0625 48.507812 40.898438 48.542969 40.730469 L 51.335938 26.476562 C 51.429688 26.101562 51.632812 25.792969 51.9375 25.550781 C 52.242188 25.308594 52.589844 25.1875 52.980469 25.183594 Z M 57.171875 25.183594 " fill-opacity="1" fill-rule="evenodd"/><path fill="#ffffff" d="M 92.96875 36.417969 L 97.757812 36.417969 C 98.550781 36.417969 98.914062 37.082031 98.3125 37.738281 C 95.699219 40.609375 91.335938 42.328125 86.078125 42.328125 C 78.585938 42.328125 74.503906 39.054688 75.542969 33.761719 C 76.613281 28.289062 82.070312 24.972656 89.476562 24.972656 C 96.226562 24.972656 100.257812 27.605469 100.273438 32.160156 C 100.328125 32.804688 100.257812 33.433594 100.058594 34.050781 C 99.929688 34.328125 99.734375 34.546875 99.476562 34.710938 C 99.21875 34.875 98.9375 34.957031 98.632812 34.960938 L 83.433594 34.960938 C 82.675781 38.523438 87.320312 39.523438 91.101562 37.230469 C 91.640625 36.761719 92.261719 36.492188 92.96875 36.417969 M 92.828125 31.957031 L 83.808594 31.957031 C 84.535156 29.757812 86.425781 28.609375 88.972656 28.609375 C 91.703125 28.609375 93.210938 29.8125 92.824219 31.957031 " fill-opacity="1" fill-rule="evenodd"/><path fill="#ffffff" d="M 123.097656 40.664062 C 123.328125 41.511719 122.640625 41.996094 121.75 41.996094 L 116.867188 41.996094 C 115.125 41.996094 115.160156 39.882812 115.15625 39.847656 C 112.660156 41.421875 109.9375 42.242188 106.988281 42.300781 C 102.179688 42.300781 99.671875 40.402344 100.238281 37.5 C 100.78125 34.738281 103.285156 33.097656 107.761719 32.410156 C 113.613281 31.515625 116.625 31.460938 116.871094 30.199219 L 116.945312 29.789062 C 117.140625 28.84375 116.160156 28.355469 114.050781 28.355469 C 110.5625 28.355469 110.726562 30.199219 108.460938 30.199219 L 104.085938 30.199219 C 103.296875 30.199219 102.785156 29.578125 103.253906 28.855469 C 105.730469 25.046875 111.117188 24.703125 114.976562 24.703125 C 119.265625 24.703125 122.148438 25.390625 123.539062 26.832031 C 124.835938 28.152344 124.589844 29.820312 124.144531 32.089844 L 122.933594 38.269531 C 122.757812 39.082031 122.8125 39.878906 123.09375 40.660156 M 115.800781 35.652344 C 115.464844 37.378906 113.25 38.820312 110.546875 38.820312 C 108.738281 38.820312 107.734375 38.011719 107.957031 36.867188 C 108.15625 35.890625 109.113281 35.40625 110.984375 35.050781 C 112.808594 34.710938 114.570312 34.941406 116.054688 34.375 Z M 115.800781 35.652344 " fill-opacity="1" fill-rule="evenodd"/></svg>