<svg xmlns="http://www.w3.org/2000/svg" id="Group_46" data-name="Group 46" width="704" height="235.209" viewBox="0 0 704 235.209"><g id="Group_41" data-name="Group 41" transform="translate(0 205.426)"><path id="Path_189" data-name="Path 189" d="M45.651,295.238v2.719a3.291,3.291,0,0,1-1.863.55c-1.65,0-2.78-.917-2.78-2.932v-.244a4.443,4.443,0,0,1-.946,1.375,6.628,6.628,0,0,1-4.674,1.863c-2.9,0-4.8-1.772-4.8-4.246a4.039,4.039,0,0,1,1.161-3.024,9.11,9.11,0,0,1,4.52-1.955c1.68-.366,3.268-.611,3.971-1.314a1.18,1.18,0,0,0,.4-.946c0-.855-.825-1.527-2.963-1.527a12.7,12.7,0,0,0-6.414,1.924v-3.39a13.3,13.3,0,0,1,6.476-1.741c4.4,0,6.322,1.863,6.322,5.009v6.933c0,.764.4,1.07.947,1.07A1.461,1.461,0,0,0,45.651,295.238Zm-4.8-4.581a7.091,7.091,0,0,1-2.81,1.038,7.088,7.088,0,0,0-3.085,1.161,1.773,1.773,0,0,0-.55,1.283c0,.855.672,1.619,2.077,1.619a4.054,4.054,0,0,0,2.9-1.16A5.916,5.916,0,0,0,40.855,290.657Z" transform="translate(-7.525 -274.874)" fill="#57053e"></path><path id="Path_190" data-name="Path 190" d="M71.555,272.83v22.908H68.1v-2.2a5.263,5.263,0,0,1-4.735,2.688c-4.063,0-7.148-3.451-7.148-8.064,0-4.581,3.086-8.156,7.178-8.156a5.115,5.115,0,0,1,4.49,2.383v-9.56Zm-3.116,15.3c0-2.993-1.862-4.918-4.367-4.918s-4.307,1.985-4.307,4.948c0,2.932,1.8,4.857,4.307,4.857S68.44,291.1,68.44,288.133Z" transform="translate(-13.829 -272.533)" fill="#57053e"></path><path id="Path_191" data-name="Path 191" d="M99.434,295.239v2.719a3.292,3.292,0,0,1-1.863.55c-1.65,0-2.78-.917-2.78-2.932v-.244a4.431,4.431,0,0,1-.946,1.374,6.625,6.625,0,0,1-4.674,1.864c-2.9,0-4.8-1.772-4.8-4.246a4.042,4.042,0,0,1,1.161-3.024,9.116,9.116,0,0,1,4.52-1.954c1.68-.366,3.268-.611,3.971-1.314a1.181,1.181,0,0,0,.4-.946c0-.855-.825-1.527-2.963-1.527a12.688,12.688,0,0,0-6.414,1.924v-3.39a13.3,13.3,0,0,1,6.476-1.741c4.4,0,6.322,1.863,6.322,5.009v6.933c0,.764.4,1.07.947,1.07A1.471,1.471,0,0,0,99.434,295.239Zm-4.8-4.581a7.09,7.09,0,0,1-2.81,1.038,7.088,7.088,0,0,0-3.085,1.161,1.772,1.772,0,0,0-.55,1.283c0,.855.672,1.619,2.077,1.619a4.057,4.057,0,0,0,2.9-1.16A5.912,5.912,0,0,0,94.638,290.658Z" transform="translate(-20.753 -274.875)" fill="#57053e"></path><path id="Path_192" data-name="Path 192" d="M143.389,281.018c0,5.468-3.91,8.8-10.446,8.8a18.753,18.753,0,0,1-3.329-.244v6.17h-3.757V272.831h7.849C139.846,272.831,143.389,276.253,143.389,281.018Zm-3.941.03c0-2.6-1.649-4.826-6.017-4.826h-3.818V286.24a22.8,22.8,0,0,0,3.3.214C137.707,286.454,139.448,284.286,139.448,281.048Z" transform="translate(-30.956 -272.533)" fill="#57053e"></path><path id="Path_193" data-name="Path 193" d="M13.7,288.218a7.616,7.616,0,0,0,3.287-3.957,9.5,9.5,0,0,0,.539-3.248c0-4.761-3.541-8.184-9.683-8.184H0v22.907H3.757v-6.167c.005,0,.015,0,.02.005a19.229,19.229,0,0,0,3.306.235,15.84,15.84,0,0,0,3.262-.318l3.815,6.244h4.217ZM7.053,286.45a22.7,22.7,0,0,1-3.3-.211v-10.02H7.572c4.369,0,6.019,2.233,6.019,4.829a6.783,6.783,0,0,1-.235,1.862C12.739,285.088,10.854,286.45,7.053,286.45Z" transform="translate(0 -272.533)" fill="#57053e"></path><path id="Path_194" data-name="Path 194" d="M154.65,290.445a8.17,8.17,0,1,1,8.155,8.126A8.063,8.063,0,0,1,154.65,290.445Zm12.767,0a4.535,4.535,0,0,0-4.612-4.887,4.911,4.911,0,1,0,4.612,4.887Z" transform="translate(-38.038 -274.875)" fill="#57053e"></path><path id="Path_195" data-name="Path 195" d="M183.941,292.5V272.832h3.665v19.243c0,.7.366,1.008.916,1.008a1.2,1.2,0,0,0,.7-.153v2.841a3.26,3.26,0,0,1-1.741.458A3.4,3.4,0,0,1,183.941,292.5Z" transform="translate(-45.243 -272.533)" fill="#57053e"></path><path id="Path_196" data-name="Path 196" d="M197.872,297.349v-3.238a7.94,7.94,0,0,0,4.337,1.283c2.077,0,2.871-.732,2.871-1.679,0-.794-.489-1.191-1.741-1.711l-1.924-.794c-2.261-.947-3.512-2.169-3.512-4.337,0-2.474,2.322-4.52,6.139-4.52a7.248,7.248,0,0,1,3.451.825v3.207a7.447,7.447,0,0,0-3.359-.825c-1.65,0-2.627.519-2.627,1.4,0,.673.305,1.038,1.344,1.467l1.894.764c2.535,1.007,3.757,2.352,3.757,4.582,0,2.291-1.985,4.8-6.261,4.795A7.3,7.3,0,0,1,197.872,297.349Z" transform="translate(-48.669 -274.875)" fill="#57053e"></path><path id="Path_197" data-name="Path 197" d="M229.824,295.741l-6.75-7.819v7.819h-3.36V272.833h3.359v14.6l6.445-6.964h4.337l-6.78,7.086,7.239,8.186Z" transform="translate(-54.042 -272.534)" fill="#57053e"></path><path id="Path_198" data-name="Path 198" d="M244.891,275.783a2.322,2.322,0,0,1,4.643,0,2.327,2.327,0,0,1-4.643,0Zm.458,4.856h3.665v15.272h-3.665Z" transform="translate(-60.234 -272.703)" fill="#57053e"></path><path id="Path_199" data-name="Path 199" d="M257.946,290.447a7.956,7.956,0,0,1,8.247-8.094,7.684,7.684,0,0,1,3.269.7l-.031,3.177a6.383,6.383,0,0,0-2.963-.673,4.9,4.9,0,1,0,0,9.8,6.081,6.081,0,0,0,2.963-.7l.03,3.176a7.178,7.178,0,0,1-3.268.734A7.947,7.947,0,0,1,257.946,290.447Z" transform="translate(-63.446 -274.875)" fill="#57053e"></path><path id="Path_200" data-name="Path 200" d="M295.367,286.457v9.285H291.7V287.22c0-2.687-1.252-4.245-3.3-4.245-2.2,0-3.726,1.863-3.726,4.734v8.033h-3.665V272.834h3.421v10.232a5.393,5.393,0,0,1,5.039-3.055C293.015,280.012,295.367,282.456,295.367,286.457Z" transform="translate(-69.119 -272.534)" fill="#57053e"></path><path id="Path_201" data-name="Path 201" d="M340.916,281.021c0,5.467-3.91,8.8-10.446,8.8a18.752,18.752,0,0,1-3.329-.245v6.17h-3.757V272.834h7.85C337.373,272.835,340.916,276.256,340.916,281.021Zm-3.941.031c0-2.6-1.649-4.827-6.016-4.827H327.14v10.019a22.921,22.921,0,0,0,3.3.213C335.234,286.457,336.975,284.289,336.975,281.052Z" transform="translate(-79.541 -272.534)" fill="#57053e"></path><path id="Path_202" data-name="Path 202" d="M363.423,282.568v3.512a5.273,5.273,0,0,0-2.108-.4c-2.169,0-3.971,1.252-3.971,4.215v8.186h-3.666V282.813H357.1v3.238a5,5,0,0,1,4.734-3.7A6.248,6.248,0,0,1,363.423,282.568Z" transform="translate(-86.992 -274.875)" fill="#57053e"></path><path id="Path_203" data-name="Path 203" d="M384.182,295.027v3.207H371.689v-.428l7-11.637H372.27v-3.208h11.851v.428l-6.812,11.638Z" transform="translate(-91.422 -275.025)" fill="#57053e"></path><path id="Path_204" data-name="Path 204" d="M407.843,291.762H397.091c.428,2.535,2.046,3.635,4.735,3.635a9.211,9.211,0,0,0,5.437-1.558v3.177a10.133,10.133,0,0,1-5.712,1.558c-4.887,0-8.064-3.086-8.064-8.095,0-4.765,3.208-8.125,7.545-8.125,3.971,0,6.994,2.688,6.994,7.514A8.644,8.644,0,0,1,407.843,291.762Zm-10.721-2.9h7.514a3.312,3.312,0,0,0-3.665-3.451C398.955,285.41,397.55,286.6,397.122,288.861Z" transform="translate(-96.784 -274.876)" fill="#57053e"></path><path id="Path_205" data-name="Path 205" d="M434.7,272.836v22.908h-3.452v-2.2a5.262,5.262,0,0,1-4.735,2.688c-4.062,0-7.147-3.451-7.147-8.064,0-4.582,3.085-8.156,7.178-8.156a5.117,5.117,0,0,1,4.49,2.383v-9.56Zm-3.116,15.3c0-2.994-1.863-4.918-4.368-4.918s-4.306,1.985-4.306,4.948c0,2.932,1.8,4.857,4.306,4.857S431.582,291.1,431.582,288.139Z" transform="translate(-103.149 -272.534)" fill="#57053e"></path><path id="Path_206" data-name="Path 206" d="M447.946,297.353v-3.238a7.941,7.941,0,0,0,4.337,1.283c2.077,0,2.871-.732,2.871-1.679,0-.794-.489-1.191-1.741-1.711l-1.924-.794c-2.261-.947-3.513-2.169-3.513-4.337,0-2.474,2.322-4.52,6.139-4.52a7.251,7.251,0,0,1,3.452.825v3.207a7.459,7.459,0,0,0-3.36-.825c-1.65,0-2.627.52-2.627,1.4,0,.673.305,1.039,1.344,1.467l1.894.764c2.535,1.007,3.757,2.352,3.757,4.582,0,2.291-1.985,4.8-6.261,4.8A7.3,7.3,0,0,1,447.946,297.353Z" transform="translate(-110.179 -274.876)" fill="#57053e"></path><path id="Path_207" data-name="Path 207" d="M469.29,275.786a2.322,2.322,0,0,1,4.643,0,2.327,2.327,0,0,1-4.643,0Zm.458,4.857h3.665v15.272h-3.665Z" transform="translate(-115.429 -272.704)" fill="#57053e"></path><path id="Path_208" data-name="Path 208" d="M496.977,291.764H486.225c.428,2.535,2.046,3.634,4.735,3.634a9.211,9.211,0,0,0,5.437-1.557v3.176a8.542,8.542,0,0,1-3.3,1.344,7.993,7.993,0,0,0-1.65,1.222,2.384,2.384,0,0,0-.855,1.527c0,.611.55.947,1.191.947a3.368,3.368,0,0,0,1.741-.581v2.536a5.863,5.863,0,0,1-2.535.641c-2.352,0-3.7-1.222-3.7-2.9a3.876,3.876,0,0,1,1.283-2.718c.214-.184.428-.367.672-.55-4.062-.55-6.628-3.512-6.628-8,0-4.765,3.207-8.125,7.545-8.125,3.971,0,6.994,2.688,6.994,7.515A8.7,8.7,0,0,1,496.977,291.764Zm-10.722-2.9h7.515a3.312,3.312,0,0,0-3.665-3.451C488.089,285.411,486.684,286.6,486.255,288.862Z" transform="translate(-118.708 -274.876)" fill="#57053e"></path><path id="Path_209" data-name="Path 209" d="M525.436,288.048a7.956,7.956,0,0,1-8.156,8.187c-4.827,0-7.972-3.391-7.972-8.553V272.837h3.42v9.9a6.018,6.018,0,0,1,5.315-2.718C522.259,280.015,525.436,283.467,525.436,288.048Zm-3.544.062c0-2.994-1.8-4.887-4.612-4.887-2.779,0-4.581,1.924-4.581,4.886s1.863,4.948,4.581,4.948C520.06,293.058,521.892,291.134,521.892,288.11Z" transform="translate(-125.272 -272.535)" fill="#57053e"></path><path id="Path_210" data-name="Path 210" d="M537.8,275.787a2.322,2.322,0,0,1,4.643,0,2.327,2.327,0,0,1-4.643,0Zm.458,4.857h3.665v15.272h-3.665Z" transform="translate(-132.279 -272.704)" fill="#57053e"></path><path id="Path_211" data-name="Path 211" d="M550.853,290.452a8.171,8.171,0,1,1,8.156,8.125A8.064,8.064,0,0,1,550.853,290.452Zm12.767,0a4.534,4.534,0,0,0-4.612-4.887,4.912,4.912,0,1,0,4.612,4.887Z" transform="translate(-135.49 -274.876)" fill="#57053e"></path><path id="Path_212" data-name="Path 212" d="M589.889,282.571v3.513a5.252,5.252,0,0,0-2.108-.4c-2.169,0-3.971,1.252-3.971,4.216v8.185h-3.665V282.816h3.421v3.238a4.994,4.994,0,0,1,4.735-3.7A6.277,6.277,0,0,1,589.889,282.571Z" transform="translate(-142.695 -274.877)" fill="#57053e"></path><path id="Path_213" data-name="Path 213" d="M598.281,290.453a7.956,7.956,0,0,1,8.247-8.095,7.691,7.691,0,0,1,3.268.7l-.031,3.177a6.389,6.389,0,0,0-2.963-.672,4.9,4.9,0,1,0,0,9.8,6.072,6.072,0,0,0,2.963-.7l.031,3.177a7.184,7.184,0,0,1-3.269.733A7.945,7.945,0,0,1,598.281,290.453Z" transform="translate(-147.156 -274.877)" fill="#57053e"></path><path id="Path_214" data-name="Path 214" d="M619.341,288.241a8.171,8.171,0,1,1,8.155,8.125A8.062,8.062,0,0,1,619.341,288.241Zm12.767,0a4.535,4.535,0,0,0-4.612-4.887,4.912,4.912,0,1,0,4.612,4.887Zm-8.033-12.675,8.277-2.2v3.177l-8.277,1.985Z" transform="translate(-152.336 -272.665)" fill="#57053e"></path><path id="Path_215" data-name="Path 215" d="M668.7,282.967l-7.27,15.7h-.641l-3.879-8.308L653,298.667h-.611l-7.361-15.7h3.665l4.062,8.735,3.665-7.636h.947l3.665,7.667,4.064-8.766Z" transform="translate(-158.654 -275.026)" fill="#57053e"></path><path id="Path_216" data-name="Path 216" d="M699.765,284.623c0,4.612,3.146,8,8.735,8a9.659,9.659,0,0,0,3.024-.55v-8.155h3.7v10.416a13.04,13.04,0,0,1-6.872,1.8c-7.7,0-12.4-5.01-12.4-11.516,0-6.933,5.1-12.187,13.134-12.187a13.611,13.611,0,0,1,6.354,1.375v3.573a14.464,14.464,0,0,0-6.17-1.527C703.278,275.856,699.765,279.461,699.765,284.623Z" transform="translate(-171.178 -272.436)" fill="#57053e"></path><path id="Path_217" data-name="Path 217" d="M730.476,292.512V272.841h3.665v19.243c0,.7.366,1.008.916,1.008a1.2,1.2,0,0,0,.7-.153v2.841a3.262,3.262,0,0,1-1.741.458A3.4,3.4,0,0,1,730.476,292.512Z" transform="translate(-179.671 -272.536)" fill="#57053e"></path><path id="Path_218" data-name="Path 218" d="M743.357,290.455a8.171,8.171,0,1,1,8.156,8.126A8.063,8.063,0,0,1,743.357,290.455Zm12.767,0a4.534,4.534,0,0,0-4.612-4.887,4.912,4.912,0,1,0,4.612,4.887Z" transform="translate(-182.839 -274.877)" fill="#57053e"></path><path id="Path_219" data-name="Path 219" d="M788.149,288.053a7.956,7.956,0,0,1-8.156,8.186c-4.826,0-7.972-3.391-7.972-8.553V272.842h3.421v9.9a6.017,6.017,0,0,1,5.314-2.718C784.973,280.02,788.149,283.472,788.149,288.053Zm-3.543.061c0-2.994-1.8-4.887-4.612-4.887-2.779,0-4.581,1.924-4.581,4.887s1.863,4.948,4.581,4.948C782.773,293.062,784.606,291.138,784.606,288.114Z" transform="translate(-189.89 -272.536)" fill="#57053e"></path><path id="Path_220" data-name="Path 220" d="M814.962,295.251v2.719a3.29,3.29,0,0,1-1.863.549c-1.649,0-2.779-.916-2.779-2.932v-.244a4.441,4.441,0,0,1-.947,1.374,6.623,6.623,0,0,1-4.673,1.863c-2.9,0-4.8-1.771-4.8-4.246a4.044,4.044,0,0,1,1.161-3.024,9.109,9.109,0,0,1,4.521-1.954c1.68-.366,3.268-.611,3.97-1.314a1.181,1.181,0,0,0,.4-.946c0-.855-.825-1.528-2.963-1.528a12.7,12.7,0,0,0-6.414,1.924V284.1a13.293,13.293,0,0,1,6.475-1.74c4.4,0,6.323,1.863,6.323,5.009V294.3c0,.764.4,1.069.946,1.069A1.469,1.469,0,0,0,814.962,295.251Zm-4.8-4.582a7.1,7.1,0,0,1-2.809,1.038,7.1,7.1,0,0,0-3.085,1.16,1.776,1.776,0,0,0-.55,1.283c0,.855.673,1.619,2.077,1.619a4.053,4.053,0,0,0,2.9-1.161A5.908,5.908,0,0,0,810.166,290.67Z" transform="translate(-196.748 -274.877)" fill="#57053e"></path><path id="Path_221" data-name="Path 221" d="M826.939,292.513V272.842H830.6v19.243c0,.7.367,1.007.916,1.007a1.2,1.2,0,0,0,.7-.152v2.84a3.257,3.257,0,0,1-1.741.458A3.4,3.4,0,0,1,826.939,292.513Z" transform="translate(-203.398 -272.536)" fill="#57053e"></path><path id="Path_222" data-name="Path 222" d="M855.837,288.807v9.285h-3.665v-8.522c0-2.687-1.252-4.245-3.3-4.245-2.2,0-3.726,1.862-3.726,4.734v8.033h-3.665V282.82H844.9v2.626a5.307,5.307,0,0,1,5.04-3.085C853.485,282.362,855.837,284.806,855.837,288.807Z" transform="translate(-206.975 -274.877)" fill="#57053e"></path><path id="Path_223" data-name="Path 223" d="M882.063,282.97l-7.025,17.747c-1.1,2.748-2.84,4.092-5.315,4.092a4.282,4.282,0,0,1-2.473-.672v-3.146a3.871,3.871,0,0,0,2.046.55c1.436,0,2.414-.7,3.085-2.5l-6.2-16.066h3.91l3.971,11.424,4.185-11.424Z" transform="translate(-213.049 -275.027)" fill="#57053e"></path><path id="Path_224" data-name="Path 224" d="M891.539,290.458a7.956,7.956,0,0,1,8.247-8.095,7.692,7.692,0,0,1,3.268.7l-.03,3.177a6.393,6.393,0,0,0-2.963-.672,4.9,4.9,0,1,0,0,9.8,6.078,6.078,0,0,0,2.963-.7l.031,3.177a7.181,7.181,0,0,1-3.268.733A7.945,7.945,0,0,1,891.539,290.458Z" transform="translate(-219.287 -274.878)" fill="#57053e"></path><path id="Path_225" data-name="Path 225" d="M928.96,286.467v9.285h-3.665V287.23c0-2.687-1.252-4.245-3.3-4.245-2.2,0-3.726,1.863-3.726,4.734v8.034H914.6V272.844h3.421v10.232a5.394,5.394,0,0,1,5.04-3.055C926.608,280.022,928.96,282.466,928.96,286.467Z" transform="translate(-224.96 -272.536)" fill="#57053e"></path></g><g id="Group_45" data-name="Group 45" transform="translate(0.06)"><path id="Path_226" data-name="Path 226" d="M104.61,118.556c19.341-11.4,30.064-30.624,30.065-55.71a67.369,67.369,0,0,0-1.588-14.753,57.586,57.586,0,0,0-7-17.465C114.832,12.2,92.878.49,62.282.02,61.642.006,61,0,60.347,0H.083l0,79.668a87.156,87.156,0,0,0,28.139,9.844c.235.039.469.074.7.112v-63.6H58.237c33.532,0,46.194,17.119,46.194,37.05,0,.786-.015,1.568-.039,2.341-.3,8.475-2.262,15.925-6.317,21.988-4.03,6.033-10.132,10.693-18.725,13.624-.039.015-.084.029-.122.044-6.737,2.281-14.993,3.5-24.978,3.5a178.965,178.965,0,0,1-23.2-1.353A99.607,99.607,0,0,1,3.4,95.951c-1.119-.474-2.228-.963-3.322-1.476l0,81.388H28.923V128.5a143,143,0,0,0,25.047,1.872c.17,0,.342,0,.513,0a123.71,123.71,0,0,0,24.182-2.246l29.164,47.739h32.36Z" transform="translate(-0.08)" fill="#57053e"></path><path id="Path_227" data-name="Path 227" d="M600.039,48.1a57.623,57.623,0,0,0-7.005-17.465C581.55,11.822,558.907.01,527.3.009H467.035V79.676a87.076,87.076,0,0,0,28.842,9.956l0-63.6h29.311c33.533,0,46.195,17.119,46.195,37.05,0,.786-.014,1.568-.039,2.341-.3,8.475-2.262,15.925-6.317,21.988-7.2,10.777-21.007,17.172-43.826,17.171a178.952,178.952,0,0,1-23.195-1.354,99.725,99.725,0,0,1-27.65-7.274q-1.679-.71-3.322-1.476v81.388h28.842V128.5a144.3,144.3,0,0,0,25.56,1.876c50.181,0,80.191-25.558,80.192-67.527A67.376,67.376,0,0,0,600.039,48.1Z" transform="translate(-114.934 -0.002)" fill="#57053e"></path><path id="Path_228" data-name="Path 228" d="M366.5,48.1A57.625,57.625,0,0,0,359.5,30.631C348.014,11.818,325.371.006,293.764,0H233.5l0,79.668a87.075,87.075,0,0,0,28.842,9.956v-63.6h29.311c33.533,0,46.194,17.119,46.194,37.05,0,.786-.015,1.568-.039,2.341-.3,8.475-2.262,15.925-6.317,21.988-7.2,10.777-21.007,17.171-43.826,17.171a179.069,179.069,0,0,1-23.195-1.354,99.724,99.724,0,0,1-27.65-7.274c-1.119-.474-2.227-.962-3.322-1.476v81.388h28.842V128.5a144.37,144.37,0,0,0,25.56,1.877c50.181,0,80.192-25.559,80.192-67.528A67.371,67.371,0,0,0,366.5,48.1Z" transform="translate(-57.492 -0.001)" fill="#57053e"></path><g id="Group_44" data-name="Group 44" transform="translate(528.095 0.593)"><g id="Group_43" data-name="Group 43"><g id="Group_42" data-name="Group 42"><path id="Path_229" data-name="Path 229" d="M903.834,124.238a87.559,87.559,0,0,0-25.162-14.263c-.1-.039-.2-.073-.309-.112a88.231,88.231,0,0,0-61.588.775V139.36a62.191,62.191,0,0,1,57.718-3.14c.078.039.169.078.253.118A62.434,62.434,0,0,1,892.4,148.725q1.736,1.736,3.309,3.584c.068.073.135.152.2.225a87.337,87.337,0,0,0,8.2-28.071C904.02,124.384,903.93,124.311,903.834,124.238Z" transform="translate(-729.053 -26.344)" fill="#57053e"></path><path id="Path_230" data-name="Path 230" d="M851.282,123.224a53.679,53.679,0,0,0-8.573-5.027,62.1,62.1,0,0,1-54.448,32.357h-.1q-.589,0-1.179-.017a61.915,61.915,0,0,1-17.129-2.753,60.568,60.568,0,0,1-7.522-2.893c-.072-.033-.14-.062-.207-.1a61.922,61.922,0,0,1-17.657-12.381q-1.845-1.846-3.505-3.815A61.943,61.943,0,0,1,788.121,26.679h.146A62.062,62.062,0,0,1,842.85,59.306h28.224A87.855,87.855,0,0,0,789.211.793c-.314-.006-.629-.006-.943-.006-.382,0-.759,0-1.135.006a87.853,87.853,0,0,0-28.938,170.366c.1.039.2.073.292.107q4.088,1.466,8.354,2.545a87.833,87.833,0,0,0,21.123,2.635h.3c.293,0,.59,0,.882-.006a87.768,87.768,0,0,0,73.869-41.688c-.05-.073-.112-.146-.163-.219A53.872,53.872,0,0,0,851.282,123.224Z" transform="translate(-700.438 -0.787)" fill="#57053e"></path></g></g></g></g></svg>