<?xml version="1.0" encoding="UTF-8"?> <svg xmlns="http://www.w3.org/2000/svg" width="361.243" height="102.695" viewBox="0 0 361.243 102.695"><g id="Artwork_5" data-name="Artwork 5" transform="translate(246.494 70.074)"><g id="Group_23" data-name="Group 23" transform="translate(-246.494 -70.074)"><g id="Group_22" data-name="Group 22"><path id="Path_127" data-name="Path 127" d="M33.208,15.553a16.657,16.657,0,0,0-.391-3.64A14.221,14.221,0,0,0,31.088,7.6C28.313,3.057,22.9.168,15.346.052c-.158,0-.317-.005-.477-.005H0V19.7a21.491,21.491,0,0,0,6.943,2.428l.174.028V6.47h7.232c8.274,0,11.4,4.223,11.4,9.141,0,.193,0,.387-.01.577a10.248,10.248,0,0,1-1.559,5.425,8.7,8.7,0,0,1-4.619,3.362l-.031.011a19.289,19.289,0,0,1-6.163.864,44.243,44.243,0,0,1-5.723-.333,24.589,24.589,0,0,1-6.822-1.8C.544,23.6.27,23.484,0,23.358V43.438H7.117V31.751a35.324,35.324,0,0,0,6.179.462h.127a30.553,30.553,0,0,0,5.966-.555l7.2,11.778h7.984L25.79,29.3C30.563,26.485,33.208,21.742,33.208,15.553Z" transform="translate(0 -0.013)" fill="#fff"></path><path id="Path_128" data-name="Path 128" d="M31.148,79.511c-2.834-4.642-8.421-7.556-16.219-7.556H.06V91.611a21.491,21.491,0,0,0,7.117,2.457V78.377h7.232c8.274,0,11.4,4.224,11.4,9.141q0,.291-.01.577a10.253,10.253,0,0,1-1.559,5.425c-1.775,2.658-5.183,4.237-10.813,4.237A44.226,44.226,0,0,1,7.7,97.424,24.6,24.6,0,0,1,.88,95.629c-.276-.117-.55-.238-.82-.364v20.081H7.177V103.659a35.58,35.58,0,0,0,6.306.463c12.381,0,19.785-6.306,19.785-16.662a16.656,16.656,0,0,0-.391-3.64A14.22,14.22,0,0,0,31.148,79.511Z" transform="translate(-0.016 -19.229)" fill="#fff"></path><path id="Path_129" data-name="Path 129" d="M104.379,7.831C101.546,3.189,95.959.275,88.16.275H73.291V19.931a21.49,21.49,0,0,0,7.117,2.457V6.7H87.64c8.273,0,11.4,4.224,11.4,9.141,0,.194,0,.387-.01.577a10.26,10.26,0,0,1-1.559,5.425c-1.775,2.659-5.183,4.237-10.813,4.237a44.1,44.1,0,0,1-5.723-.334,24.608,24.608,0,0,1-6.822-1.795c-.276-.117-.55-.237-.82-.364V43.666h7.117V31.979a35.586,35.586,0,0,0,6.306.463c12.382,0,19.786-6.306,19.786-16.662a16.6,16.6,0,0,0-.392-3.64A14.207,14.207,0,0,0,104.379,7.831Z" transform="translate(-19.586 -0.073)" fill="#fff"></path><path id="Path_130" data-name="Path 130" d="M183.858,17.4a10.024,10.024,0,0,0-4.874,2.027,4.1,4.1,0,0,0-1.252,3.135c0,2.565,2.042,4.4,5.17,4.4a7.294,7.294,0,0,0,5.038-1.931,4.594,4.594,0,0,0,1.021-1.425v.254a2.732,2.732,0,0,0,3,3.039,3.644,3.644,0,0,0,2.009-.569V23.516a1.64,1.64,0,0,1-.691.127c-.593,0-1.021-.317-1.021-1.108V15.347c0-3.262-2.075-5.193-6.818-5.193a14.781,14.781,0,0,0-6.982,1.8v3.515a14.091,14.091,0,0,1,6.916-2c2.305,0,3.195.7,3.195,1.584a1.2,1.2,0,0,1-.428.981C187.382,16.772,185.67,17.025,183.858,17.4Zm4.94,1.362a6,6,0,0,1-1.581,4.084,4.464,4.464,0,0,1-3.128,1.2c-1.515,0-2.24-.791-2.24-1.677a1.808,1.808,0,0,1,.593-1.33,7.816,7.816,0,0,1,3.327-1.2A7.843,7.843,0,0,0,188.8,18.767Z" transform="translate(-47.497 -2.714)" fill="#fff"></path><path id="Path_131" data-name="Path 131" d="M210.616,24.253a5.721,5.721,0,0,0,5.1-2.786v2.28h3.722V0H215.49V9.91a5.581,5.581,0,0,0-4.841-2.469c-4.413,0-7.739,3.7-7.739,8.455C202.91,20.676,206.236,24.253,210.616,24.253Zm.758-13.488c2.7,0,4.71,2,4.71,5.1,0,3.071-2.009,5.066-4.71,5.066s-4.643-1.995-4.643-5.034C206.73,12.823,208.672,10.765,211.373,10.765Z" transform="translate(-54.225)" fill="#fff"></path><path id="Path_132" data-name="Path 132" d="M237.007,17.4a10.03,10.03,0,0,0-4.874,2.027,4.106,4.106,0,0,0-1.252,3.135c0,2.565,2.042,4.4,5.17,4.4a7.3,7.3,0,0,0,5.039-1.931,4.606,4.606,0,0,0,1.021-1.425v.254a2.732,2.732,0,0,0,3,3.039,3.644,3.644,0,0,0,2.009-.569V23.516a1.644,1.644,0,0,1-.692.127c-.592,0-1.021-.317-1.021-1.108V15.347c0-3.262-2.074-5.193-6.817-5.193a14.781,14.781,0,0,0-6.982,1.8v3.515a14.088,14.088,0,0,1,6.916-2c2.305,0,3.195.7,3.195,1.584a1.2,1.2,0,0,1-.428.981C240.531,16.772,238.818,17.025,237.007,17.4Zm4.94,1.362a6,6,0,0,1-1.581,4.084,4.465,4.465,0,0,1-3.128,1.2c-1.515,0-2.24-.791-2.24-1.677a1.806,1.806,0,0,1,.594-1.33,7.809,7.809,0,0,1,3.326-1.2A7.843,7.843,0,0,0,241.946,18.767Z" transform="translate(-61.7 -2.714)" fill="#fff"></path><path id="Path_133" data-name="Path 133" d="M274.212,17.351a21.055,21.055,0,0,0,3.589.254c7.048,0,11.263-3.451,11.263-9.119,0-4.94-3.821-8.486-10.44-8.486h-8.463V23.747h4.051Zm0-13.837h4.117c4.709,0,6.487,2.311,6.487,5,0,3.356-1.877,5.6-7.048,5.6a25.547,25.547,0,0,1-3.556-.221Z" transform="translate(-72.197)" fill="#fff"></path><path id="Path_134" data-name="Path 134" d="M151,17.349a.458.458,0,0,0,.093.012,20.626,20.626,0,0,0,3.5.243,17.91,17.91,0,0,0,3.583-.341l4.117,6.482h4.545l-5.054-7.823a7.946,7.946,0,0,0,3.347-3.72,9.206,9.206,0,0,0,.727-3.713C165.85,3.547,162.031,0,155.412,0h-8.463V23.745H151Zm0-13.833h4.117c4.712,0,6.489,2.31,6.489,5a6.46,6.46,0,0,1-.329,2.154c-.727,2.124-2.757,3.446-6.719,3.446A25,25,0,0,1,151,13.9Z" transform="translate(-39.27 -0.001)" fill="#fff"></path><path id="Path_135" data-name="Path 135" d="M307.649,26.967a8.569,8.569,0,0,0,8.826-8.422,8.82,8.82,0,0,0-17.619,0A8.56,8.56,0,0,0,307.649,26.967Zm0-13.488a4.79,4.79,0,0,1,4.973,5.066,4.833,4.833,0,0,1-4.973,5.1,4.888,4.888,0,0,1-4.973-5.1A4.843,4.843,0,0,1,307.649,13.479Z" transform="translate(-79.866 -2.714)" fill="#fff"></path><path id="Path_136" data-name="Path 136" d="M331.921,24.253a3.629,3.629,0,0,0,1.877-.474V20.834a1.338,1.338,0,0,1-.758.158.913.913,0,0,1-.988-1.044V0H328.1V20.391A3.591,3.591,0,0,0,331.921,24.253Z" transform="translate(-87.681)" fill="#fff"></path><path id="Path_137" data-name="Path 137" d="M347.713,17.246l-2.042-.791c-1.119-.443-1.449-.823-1.449-1.52,0-.918,1.054-1.457,2.832-1.457a8.29,8.29,0,0,1,3.623.855V11.009a8.067,8.067,0,0,0-3.722-.855c-4.117,0-6.619,2.121-6.619,4.687,0,2.247,1.35,3.514,3.787,4.5l2.075.823c1.35.539,1.877.95,1.877,1.774,0,.981-.856,1.741-3.1,1.741a8.815,8.815,0,0,1-4.677-1.329V25.7a8.1,8.1,0,0,0,4.709,1.265c4.611,0,6.752-2.6,6.752-4.97C351.763,19.684,350.446,18.292,347.713,17.246Z" transform="translate(-90.941 -2.714)" fill="#fff"></path><path id="Path_138" data-name="Path 138" d="M364.9,15.641l7.278,8.106h4.841l-7.8-8.486,7.311-7.345h-4.676L364.9,15.135V0h-3.622V23.747H364.9Z" transform="translate(-96.546)" fill="#fff"></path><rect id="Rectangle_4" data-name="Rectangle 4" width="3.952" height="15.831" transform="translate(283.304 7.916)" fill="#fff"></rect><path id="Path_139" data-name="Path 139" d="M388.453.735a2.228,2.228,0,0,0-2.5,2.343,2.518,2.518,0,0,0,5.006,0A2.214,2.214,0,0,0,388.453.735Z" transform="translate(-103.14 -0.196)" fill="#fff"></path><path id="Path_140" data-name="Path 140" d="M406.073,26.967a8,8,0,0,0,3.523-.759l-.033-3.293a6.762,6.762,0,0,1-3.194.728,5.006,5.006,0,0,1-5.368-5.1,5,5,0,0,1,5.368-5.066,7.113,7.113,0,0,1,3.194.7l.033-3.293a8.572,8.572,0,0,0-3.523-.728c-5.269,0-8.892,3.736-8.892,8.391C397.181,23.231,400.771,26.967,406.073,26.967Z" transform="translate(-106.141 -2.714)" fill="#fff"></path><path id="Path_141" data-name="Path 141" d="M431.039,14.913v8.834h3.952V14.121c0-4.147-2.536-6.681-6.356-6.681a5.843,5.843,0,0,0-5.434,3.166V0h-3.688V23.747h3.952V15.42c0-2.976,1.647-4.907,4.018-4.907C429.689,10.512,431.039,12.127,431.039,14.913Z" transform="translate(-112.109)" fill="#fff"></path><path id="Path_142" data-name="Path 142" d="M146.874,48.947V72.694h4.051V66.3a21.064,21.064,0,0,0,3.59.254c7.048,0,11.263-3.451,11.263-9.119,0-4.94-3.82-8.486-10.44-8.486Zm14.655,8.518c0,3.356-1.877,5.6-7.047,5.6a25.56,25.56,0,0,1-3.557-.221V52.461h4.117C159.75,52.461,161.529,54.773,161.529,57.465Z" transform="translate(-39.25 -13.08)" fill="#fff"></path><path id="Path_143" data-name="Path 143" d="M187.743,59.323a6.976,6.976,0,0,0-1.712-.222,5.352,5.352,0,0,0-5.1,3.832V59.577h-3.689V75.408h3.952V66.922c0-3.071,1.943-4.369,4.282-4.369a5.878,5.878,0,0,1,2.272.412Z" transform="translate(-47.364 -15.794)" fill="#fff"></path><path id="Path_144" data-name="Path 144" d="M193.956,75.581h13.469V72.256h-7.41l7.344-12.063V59.75H194.582v3.325H201.5l-7.541,12.063Z" transform="translate(-51.832 -15.967)" fill="#fff"></path><path id="Path_145" data-name="Path 145" d="M229.733,74.3V71.007a10.216,10.216,0,0,1-5.862,1.614c-2.9,0-4.643-1.139-5.1-3.768h11.592a8.667,8.667,0,0,0,.2-1.963c0-5-3.26-7.789-7.542-7.789-4.677,0-8.134,3.483-8.134,8.423,0,5.192,3.425,8.39,8.694,8.39A11.256,11.256,0,0,0,229.733,74.3Zm-6.784-12.032c2.37,0,3.787,1.172,3.952,3.578h-8.1A4,4,0,0,1,222.949,62.267Z" transform="translate(-57.424 -15.794)" fill="#fff"></path><path id="Path_146" data-name="Path 146" d="M240.327,64.842c0,4.781,3.326,8.359,7.706,8.359a5.721,5.721,0,0,0,5.1-2.787v2.28h3.721V48.947h-3.952v9.911a5.579,5.579,0,0,0-4.841-2.47C243.653,56.387,240.327,60.092,240.327,64.842Zm13.173-.032c0,3.071-2.009,5.066-4.709,5.066s-4.644-1.995-4.644-5.034c0-3.071,1.943-5.13,4.644-5.13S253.5,61.707,253.5,64.811Z" transform="translate(-64.224 -13.08)" fill="#fff"></path><path id="Path_147" data-name="Path 147" d="M276.19,66.193l-2.042-.791c-1.12-.443-1.449-.823-1.449-1.52,0-.918,1.054-1.457,2.832-1.457a8.29,8.29,0,0,1,3.623.855V59.956a8.067,8.067,0,0,0-3.722-.855c-4.117,0-6.619,2.122-6.619,4.687,0,2.247,1.35,3.514,3.787,4.5l2.074.822c1.351.539,1.877.95,1.877,1.774,0,.981-.857,1.741-3.1,1.741a8.809,8.809,0,0,1-4.676-1.329v3.356a8.094,8.094,0,0,0,4.709,1.266c4.611,0,6.751-2.6,6.751-4.971C280.24,68.632,278.923,67.239,276.19,66.193Z" transform="translate(-71.828 -15.794)" fill="#fff"></path><path id="Path_148" data-name="Path 148" d="M291.7,49.682a2.3,2.3,0,1,0,2.5,2.343A2.228,2.228,0,0,0,291.7,49.682Z" transform="translate(-77.285 -13.277)" fill="#fff"></path><rect id="Rectangle_5" data-name="Rectangle 5" width="3.952" height="15.831" transform="translate(212.41 43.783)" fill="#fff"></rect><path id="Path_149" data-name="Path 149" d="M312.494,81.55V78.922a3.733,3.733,0,0,1-1.877.6c-.692,0-1.285-.348-1.285-.981a2.443,2.443,0,0,1,.923-1.583,8.563,8.563,0,0,1,1.778-1.266A9.433,9.433,0,0,0,315.59,74.3V71.007a10.216,10.216,0,0,1-5.863,1.614c-2.9,0-4.643-1.139-5.1-3.768h11.592a8.666,8.666,0,0,0,.2-1.963c0-5-3.26-7.789-7.542-7.789-4.676,0-8.134,3.483-8.134,8.423,0,4.654,2.766,7.726,7.147,8.3-.264.19-.494.38-.725.569a3.96,3.96,0,0,0-1.383,2.818c0,1.741,1.449,3.008,3.985,3.008A6.508,6.508,0,0,0,312.494,81.55Zm-3.689-19.283c2.371,0,3.788,1.172,3.952,3.578h-8.1A4,4,0,0,1,308.805,62.267Z" transform="translate(-80.368 -15.794)" fill="#fff"></path><path id="Path_150" data-name="Path 150" d="M335.677,73.2a8.415,8.415,0,0,0,8.793-8.485,7.974,7.974,0,0,0-7.969-8.328,6.565,6.565,0,0,0-5.73,2.818V48.947h-3.689V64.335C327.082,69.686,330.475,73.2,335.677,73.2Zm0-13.489a4.688,4.688,0,0,1,4.973,5.066c0,3.135-1.976,5.129-4.973,5.129a4.779,4.779,0,0,1-4.94-5.129A4.7,4.7,0,0,1,335.677,59.712Z" transform="translate(-87.408 -13.08)" fill="#fff"></path><rect id="Rectangle_6" data-name="Rectangle 6" width="3.952" height="15.831" transform="translate(260.945 43.783)" fill="#fff"></rect><path id="Path_151" data-name="Path 151" d="M357.939,54.273a2.3,2.3,0,1,0-2.5-2.248A2.207,2.207,0,0,0,357.939,54.273Z" transform="translate(-94.986 -13.277)" fill="#fff"></path><path id="Path_152" data-name="Path 152" d="M375.46,59.1a8.417,8.417,0,1,0,8.826,8.391A8.535,8.535,0,0,0,375.46,59.1Zm0,13.489a5.083,5.083,0,0,1,0-10.164,5.083,5.083,0,0,1,0,10.164Z" transform="translate(-97.987 -15.794)" fill="#fff"></path><path id="Path_153" data-name="Path 153" d="M399.6,62.933V59.577h-3.688V75.408h3.952V66.922c0-3.071,1.943-4.369,4.281-4.369a5.878,5.878,0,0,1,2.272.412V59.323A6.976,6.976,0,0,0,404.7,59.1,5.351,5.351,0,0,0,399.6,62.933Z" transform="translate(-105.802 -15.794)" fill="#fff"></path><path id="Path_154" data-name="Path 154" d="M421.966,62.426a7.119,7.119,0,0,1,3.195.7l.033-3.293a8.573,8.573,0,0,0-3.524-.728c-5.269,0-8.891,3.736-8.891,8.391,0,4.686,3.589,8.422,8.891,8.422a8,8,0,0,0,3.524-.76l-.033-3.293a6.757,6.757,0,0,1-3.195.728,5.09,5.09,0,1,1,0-10.164Z" transform="translate(-110.31 -15.794)" fill="#fff"></path><path id="Path_155" data-name="Path 155" d="M439.861,54.86l8.925-2.058V49.509l-8.925,2.28Z" transform="translate(-117.547 -13.231)" fill="#fff"></path><path id="Path_156" data-name="Path 156" d="M441.688,59.1a8.417,8.417,0,1,0,8.826,8.391A8.535,8.535,0,0,0,441.688,59.1Zm0,13.489a5.083,5.083,0,0,1,0-10.164,5.083,5.083,0,0,1,0,10.164Z" transform="translate(-115.685 -15.794)" fill="#fff"></path><path id="Path_157" data-name="Path 157" d="M479.793,59.75l-4.38,9.087-3.952-7.947h-1.021l-3.952,7.915-4.38-9.055h-3.952l7.936,16.274h.659l4.215-8.612,4.182,8.612h.691l7.838-16.274Z" transform="translate(-122.436 -15.967)" fill="#fff"></path><path id="Path_158" data-name="Path 158" d="M145.3,110.652c0,6.744,5.071,11.937,13.371,11.937a14.476,14.476,0,0,0,7.41-1.868v-10.8H162.1v8.454a10.772,10.772,0,0,1-3.261.57c-6.026,0-9.418-3.514-9.418-8.3,0-5.351,3.787-9.087,10.242-9.087a16.1,16.1,0,0,1,6.653,1.583v-3.7a15.178,15.178,0,0,0-6.851-1.424C150.8,98.019,145.3,103.464,145.3,110.652Z" transform="translate(-38.83 -26.194)" fill="#fff"></path><path id="Path_159" data-name="Path 159" d="M184.3,118.4V98.451h-3.952v20.391a3.846,3.846,0,0,0,5.7,3.388v-2.944a1.338,1.338,0,0,1-.758.158A.913.913,0,0,1,184.3,118.4Z" transform="translate(-48.197 -26.31)" fill="#fff"></path><path id="Path_160" data-name="Path 160" d="M200.187,108.6a8.416,8.416,0,1,0,8.825,8.39A8.535,8.535,0,0,0,200.187,108.6Zm0,13.489a5.083,5.083,0,0,1,0-10.164,5.083,5.083,0,0,1,0,10.164Z" transform="translate(-51.147 -29.023)" fill="#fff"></path><path id="Path_161" data-name="Path 161" d="M229.356,105.891a6.563,6.563,0,0,0-5.73,2.818V98.451h-3.689v15.388c0,5.351,3.392,8.865,8.6,8.865a8.416,8.416,0,0,0,8.793-8.485A7.973,7.973,0,0,0,229.356,105.891Zm-.824,13.52a4.78,4.78,0,0,1-4.94-5.13,4.958,4.958,0,1,1,9.913,0C233.506,117.416,231.529,119.412,228.532,119.412Z" transform="translate(-58.775 -26.31)" fill="#fff"></path><path id="Path_162" data-name="Path 162" d="M262.14,120.985V113.8c0-3.261-2.075-5.192-6.817-5.192a14.768,14.768,0,0,0-6.982,1.8v3.514a14.086,14.086,0,0,1,6.916-1.995c2.305,0,3.194.7,3.194,1.583a1.205,1.205,0,0,1-.428.982c-.758.728-2.47.982-4.282,1.361a10.029,10.029,0,0,0-4.874,2.026,4.108,4.108,0,0,0-1.252,3.135c0,2.565,2.042,4.4,5.17,4.4a7.3,7.3,0,0,0,5.038-1.931,4.6,4.6,0,0,0,1.021-1.425v.254a2.731,2.731,0,0,0,3,3.04,3.638,3.638,0,0,0,2.009-.57v-2.818a1.643,1.643,0,0,1-.692.127C262.568,122.094,262.14,121.776,262.14,120.985Zm-5.038.317a4.464,4.464,0,0,1-3.129,1.2c-1.515,0-2.239-.791-2.239-1.678a1.806,1.806,0,0,1,.593-1.329,7.812,7.812,0,0,1,3.326-1.2,7.839,7.839,0,0,0,3.03-1.076A6,6,0,0,1,257.1,121.3Z" transform="translate(-66.172 -29.023)" fill="#fff"></path><path id="Path_163" data-name="Path 163" d="M278.3,118.4V98.451h-3.952v20.391a3.846,3.846,0,0,0,5.7,3.388v-2.944a1.338,1.338,0,0,1-.758.158A.913.913,0,0,1,278.3,118.4Z" transform="translate(-73.316 -26.31)" fill="#fff"></path><path id="Path_164" data-name="Path 164" d="M296.352,108.6a5.741,5.741,0,0,0-5.434,3.2V109.08H287.23v15.831h3.952v-8.327c0-2.976,1.647-4.907,4.018-4.907,2.206,0,3.556,1.614,3.556,4.4v8.833h3.953v-9.626C302.708,111.138,300.172,108.6,296.352,108.6Z" transform="translate(-76.758 -29.023)" fill="#fff"></path><path id="Path_165" data-name="Path 165" d="M319.882,121.094,315.6,109.253h-4.216l6.686,16.655c-.725,1.868-1.778,2.6-3.326,2.6a4.307,4.307,0,0,1-2.207-.57V131.2a4.755,4.755,0,0,0,2.667.7c2.668,0,4.545-1.393,5.731-4.243l7.574-18.4h-4.116Z" transform="translate(-83.214 -29.196)" fill="#fff"></path><path id="Path_166" data-name="Path 166" d="M345.463,111.93a7.12,7.12,0,0,1,3.195.7l.033-3.294a8.59,8.59,0,0,0-3.524-.728c-5.269,0-8.892,3.736-8.892,8.39,0,4.687,3.59,8.422,8.892,8.422a8,8,0,0,0,3.524-.76l-.033-3.293a6.756,6.756,0,0,1-3.195.729,5.09,5.09,0,1,1,0-10.164Z" transform="translate(-89.865 -29.023)" fill="#fff"></path><path id="Path_167" data-name="Path 167" d="M367.729,105.891a5.84,5.84,0,0,0-5.433,3.166V98.451h-3.689V122.2h3.952v-8.327c0-2.976,1.646-4.907,4.018-4.907,2.206,0,3.557,1.614,3.557,4.4V122.2h3.952v-9.626C374.085,108.425,371.549,105.891,367.729,105.891Z" transform="translate(-95.833 -26.31)" fill="#fff"></path><g id="Group_21" data-name="Group 21" transform="translate(42.684 52.816)"><g id="Group_20" data-name="Group 20"><g id="Group_19" data-name="Group 19"><path id="Path_168" data-name="Path 168" d="M109.418,103.372a21.668,21.668,0,0,0-6.226-3.53l-.076-.028a21.834,21.834,0,0,0-15.24.192v7.108a15.387,15.387,0,0,1,14.282-.777l.062.029a15.475,15.475,0,0,1,4.369,3.065q.429.43.818.887c.017.018.034.038.048.056a21.6,21.6,0,0,0,2.03-6.946C109.464,103.408,109.441,103.39,109.418,103.372Z" transform="translate(-66.168 -79.149)" fill="#fff"></path><path id="Path_169" data-name="Path 169" d="M95.578,102.375a13.3,13.3,0,0,0-2.121-1.244,15.368,15.368,0,0,1-13.473,8.007h-.025q-.146,0-.292,0a15.29,15.29,0,0,1-4.238-.681,15.075,15.075,0,0,1-1.861-.716l-.051-.023a15.31,15.31,0,0,1-4.369-3.064c-.3-.3-.594-.62-.868-.944a15.328,15.328,0,0,1,11.67-25.22h.037a15.358,15.358,0,0,1,13.506,8.074h6.984A21.739,21.739,0,0,0,80.218,72.079H79.7a21.74,21.74,0,0,0-7.161,42.157l.073.026q1.011.363,2.067.629a21.745,21.745,0,0,0,5.227.652H80.2A21.72,21.72,0,0,0,98.48,105.227c-.012-.018-.028-.037-.04-.054A13.324,13.324,0,0,0,95.578,102.375Z" transform="translate(-58.251 -72.078)" fill="#fff"></path></g></g></g></g></g></g></svg> 